<mxfile host="Electron" modified="2023-11-25T11:58:22.409Z" agent="Mozilla/5.0 (Macintosh; Intel Mac OS X 10_15_7) AppleWebKit/537.36 (KHTML, like Gecko) draw.io/22.1.2 Chrome/114.0.5735.289 Electron/25.9.4 Safari/537.36" etag="uoDEoM0yjojOmIvAxP1J" version="22.1.2" type="device">
  <diagram name="Page-1" id="XKGZmzhLsIBNGG6izZ6-">
    <mxGraphModel dx="1340" dy="766" grid="1" gridSize="10" guides="1" tooltips="1" connect="1" arrows="1" fold="1" page="1" pageScale="1" pageWidth="850" pageHeight="1100" math="0" shadow="0">
      <root>
        <mxCell id="0" />
        <mxCell id="1" parent="0" />
        <mxCell id="eJ6fyogvMwMZhCJaJQ-F-1" value="Courier c1" style="shape=umlActor;verticalLabelPosition=bottom;verticalAlign=top;html=1;outlineConnect=0;" parent="1" vertex="1">
          <mxGeometry x="120" y="90" width="30" height="60" as="geometry" />
        </mxCell>
        <mxCell id="eJ6fyogvMwMZhCJaJQ-F-5" value="" style="endArrow=classic;html=1;rounded=0;" parent="1" edge="1">
          <mxGeometry width="50" height="50" relative="1" as="geometry">
            <mxPoint x="160" y="117" as="sourcePoint" />
            <mxPoint x="260" y="117" as="targetPoint" />
          </mxGeometry>
        </mxCell>
        <mxCell id="eJ6fyogvMwMZhCJaJQ-F-6" value="click &#39;failed&#39;" style="text;html=1;align=center;verticalAlign=middle;resizable=0;points=[];autosize=1;strokeColor=none;fillColor=none;" parent="1" vertex="1">
          <mxGeometry x="170" y="88" width="80" height="30" as="geometry" />
        </mxCell>
        <mxCell id="eJ6fyogvMwMZhCJaJQ-F-8" value="isi fail_message" style="rounded=0;whiteSpace=wrap;html=1;" parent="1" vertex="1">
          <mxGeometry x="270" y="90" width="120" height="30" as="geometry" />
        </mxCell>
        <mxCell id="eJ6fyogvMwMZhCJaJQ-F-9" value="" style="endArrow=classic;html=1;rounded=0;" parent="1" edge="1">
          <mxGeometry width="50" height="50" relative="1" as="geometry">
            <mxPoint x="395" y="110" as="sourcePoint" />
            <mxPoint x="475" y="110" as="targetPoint" />
          </mxGeometry>
        </mxCell>
        <mxCell id="eJ6fyogvMwMZhCJaJQ-F-10" value="post" style="text;html=1;align=center;verticalAlign=middle;resizable=0;points=[];autosize=1;strokeColor=none;fillColor=none;" parent="1" vertex="1">
          <mxGeometry x="410" y="80" width="50" height="30" as="geometry" />
        </mxCell>
        <mxCell id="eJ6fyogvMwMZhCJaJQ-F-13" value="put status on_process -&amp;gt; failed" style="text;html=1;align=left;verticalAlign=middle;resizable=0;points=[];autosize=1;strokeColor=none;fillColor=none;" parent="1" vertex="1">
          <mxGeometry x="270" y="120" width="190" height="30" as="geometry" />
        </mxCell>
        <mxCell id="eJ6fyogvMwMZhCJaJQ-F-14" value="" style="endArrow=classic;html=1;rounded=0;" parent="1" edge="1">
          <mxGeometry width="50" height="50" relative="1" as="geometry">
            <mxPoint x="270" y="149.52" as="sourcePoint" />
            <mxPoint x="480" y="149.52" as="targetPoint" />
          </mxGeometry>
        </mxCell>
        <mxCell id="eJ6fyogvMwMZhCJaJQ-F-15" value="" style="endArrow=classic;html=1;rounded=0;" parent="1" edge="1">
          <mxGeometry width="50" height="50" relative="1" as="geometry">
            <mxPoint x="270" y="270" as="sourcePoint" />
            <mxPoint x="480" y="270" as="targetPoint" />
          </mxGeometry>
        </mxCell>
        <mxCell id="eJ6fyogvMwMZhCJaJQ-F-16" value="put status failed -&amp;gt; returned to dest_pool" style="text;html=1;align=left;verticalAlign=middle;resizable=0;points=[];autosize=1;strokeColor=none;fillColor=none;" parent="1" vertex="1">
          <mxGeometry x="270" y="240" width="240" height="30" as="geometry" />
        </mxCell>
        <mxCell id="eJ6fyogvMwMZhCJaJQ-F-17" value="Admin at dest_pool" style="shape=umlActor;verticalLabelPosition=bottom;verticalAlign=top;html=1;outlineConnect=0;" parent="1" vertex="1">
          <mxGeometry x="120" y="205" width="30" height="60" as="geometry" />
        </mxCell>
        <mxCell id="eJ6fyogvMwMZhCJaJQ-F-20" value="click &#39;received&#39;" style="text;html=1;align=center;verticalAlign=middle;resizable=0;points=[];autosize=1;strokeColor=none;fillColor=none;" parent="1" vertex="1">
          <mxGeometry x="170" y="250" width="100" height="30" as="geometry" />
        </mxCell>
        <mxCell id="eJ6fyogvMwMZhCJaJQ-F-22" value="courier c1 availability = true" style="text;html=1;align=left;verticalAlign=middle;resizable=0;points=[];autosize=1;strokeColor=none;fillColor=none;" parent="1" vertex="1">
          <mxGeometry x="500" y="250" width="170" height="30" as="geometry" />
        </mxCell>
        <mxCell id="eJ6fyogvMwMZhCJaJQ-F-25" value="customer" style="shape=umlActor;verticalLabelPosition=bottom;verticalAlign=top;html=1;outlineConnect=0;" parent="1" vertex="1">
          <mxGeometry x="120" y="310" width="30" height="60" as="geometry" />
        </mxCell>
        <mxCell id="eJ6fyogvMwMZhCJaJQ-F-28" value="status: package arrived at destination pool" style="text;html=1;strokeColor=none;fillColor=none;align=center;verticalAlign=middle;whiteSpace=wrap;rounded=0;" parent="1" vertex="1">
          <mxGeometry x="500" y="340" width="160" height="30" as="geometry" />
        </mxCell>
        <mxCell id="eJ6fyogvMwMZhCJaJQ-F-29" value="get" style="text;html=1;align=left;verticalAlign=middle;resizable=0;points=[];autosize=1;strokeColor=none;fillColor=none;" parent="1" vertex="1">
          <mxGeometry x="350" y="325" width="40" height="30" as="geometry" />
        </mxCell>
        <mxCell id="eJ6fyogvMwMZhCJaJQ-F-30" value="" style="endArrow=classic;html=1;rounded=0;" parent="1" edge="1">
          <mxGeometry width="50" height="50" relative="1" as="geometry">
            <mxPoint x="270" y="360" as="sourcePoint" />
            <mxPoint x="480" y="360" as="targetPoint" />
          </mxGeometry>
        </mxCell>
        <mxCell id="eJ6fyogvMwMZhCJaJQ-F-31" value="input tracking_no.&lt;br&gt;click &#39;received&#39;" style="text;html=1;align=center;verticalAlign=middle;resizable=0;points=[];autosize=1;strokeColor=none;fillColor=none;" parent="1" vertex="1">
          <mxGeometry x="150" y="335" width="120" height="40" as="geometry" />
        </mxCell>
        <mxCell id="eJ6fyogvMwMZhCJaJQ-F-32" value="get status" style="text;html=1;align=center;verticalAlign=middle;resizable=0;points=[];autosize=1;strokeColor=none;fillColor=none;" parent="1" vertex="1">
          <mxGeometry x="290" y="200" width="80" height="30" as="geometry" />
        </mxCell>
        <mxCell id="eJ6fyogvMwMZhCJaJQ-F-35" value="" style="endArrow=classic;html=1;rounded=0;" parent="1" edge="1">
          <mxGeometry width="50" height="50" relative="1" as="geometry">
            <mxPoint x="270" y="228" as="sourcePoint" />
            <mxPoint x="480" y="228" as="targetPoint" />
          </mxGeometry>
        </mxCell>
        <mxCell id="eJ6fyogvMwMZhCJaJQ-F-36" value="login&lt;br&gt;user_id &amp;amp; password&lt;br&gt;match database" style="text;html=1;align=center;verticalAlign=middle;resizable=0;points=[];autosize=1;strokeColor=none;fillColor=none;" parent="1" vertex="1">
          <mxGeometry x="155" y="185" width="130" height="60" as="geometry" />
        </mxCell>
      </root>
    </mxGraphModel>
  </diagram>
</mxfile>
